<svg xmlns="http://www.w3.org/2000/svg" width="992" height="496" viewBox="0 0 992 496" fill="none"><g clip-path="url(#clip0_3804_9648)"><path d="M733.459 302.331C785.521 328.347 863.002 367.064 863.002 209C768.789 137.144 609.087 131.057 490 173C370.913 214.944 349 314 255 328C268.344 386.418 424.799 403.265 533.238 378.495C605.31 362.031 663.534 326.72 690.563 287.736C692.518 287.911 694.498 288.001 696.498 288.001C704.781 288.001 717.999 294.606 733.459 302.331Z" fill="white"></path><path d="M1147.14 6.61251C1021.15 -22.2328 947.333 -8.75945 829.07 147.175C750.187 251.187 601.413 246.895 515 274.862C478.918 286.539 457 313 405 319.999C204.581 346.977 546.049 426.815 802.721 392.883C1270.38 331.059 1318.81 45.9143 1147.14 6.61251Z" fill="#774AD8"></path><path d="M861 296C811.399 327.763 760.61 316.412 717.102 306.688C567.004 273.143 403.521 338.199 248.426 315.22C213.586 310.059 162.395 311.745 115.782 324.644C79.0329 334.813 29.6436 356.552 4.09125 402.001C-26 473.265 118.552 475.081 179.744 473.266C386.354 467.138 616.029 450.616 818.5 485.218C1155.55 542.82 1257.78 352.78 1143 278C1055 220.668 994.924 210.242 861 296Z" fill="#22AC78"></path></g><defs><clipPath id="clip0_3804_9648"><rect width="992" height="496" fill="white"></rect></clipPath></defs></svg>